<svg xmlns="http://www.w3.org/2000/svg" xmlns:xlink="http://www.w3.org/1999/xlink" width="850" zoomAndPan="magnify" viewBox="0 0 637.5 599.249981" height="799" preserveAspectRatio="xMidYMid meet" version="1.0"><defs><clipPath id="24fd8abd3d"><path d="M 48.984375 243 L 588.308594 243 L 588.308594 528 L 48.984375 528 Z M 48.984375 243 " clip-rule="nonzero"/></clipPath></defs><path fill="#5fa5f9" d="M 381.34375 185.394531 C 381.757812 184.976562 382.132812 184.523438 382.457031 184.03125 C 382.785156 183.542969 383.0625 183.023438 383.289062 182.480469 C 383.515625 181.933594 383.683594 181.371094 383.800781 180.792969 C 383.914062 180.214844 383.972656 179.632812 383.972656 179.042969 C 383.972656 178.453125 383.914062 177.867188 383.800781 177.289062 C 383.683594 176.710938 383.515625 176.148438 383.289062 175.605469 C 383.0625 175.058594 382.785156 174.542969 382.457031 174.050781 C 382.132812 173.5625 381.757812 173.105469 381.34375 172.691406 C 379.933594 171.285156 378.492188 169.917969 377.019531 168.585938 C 375.542969 167.253906 374.039062 165.957031 372.5 164.699219 C 370.960938 163.441406 369.394531 162.222656 367.796875 161.039062 C 366.199219 159.859375 364.574219 158.714844 362.917969 157.613281 C 361.265625 156.511719 359.585938 155.453125 357.878906 154.433594 C 356.175781 153.414062 354.445312 152.433594 352.691406 151.5 C 350.9375 150.566406 349.160156 149.675781 347.363281 148.828125 C 345.566406 147.980469 343.75 147.175781 341.914062 146.417969 C 340.078125 145.65625 338.222656 144.945312 336.351562 144.277344 C 334.480469 143.609375 332.589844 142.988281 330.691406 142.414062 C 328.789062 141.835938 326.871094 141.308594 324.945312 140.828125 C 323.015625 140.347656 321.078125 139.914062 319.128906 139.527344 C 317.179688 139.140625 315.222656 138.800781 313.253906 138.511719 C 311.289062 138.21875 309.316406 137.980469 307.339844 137.785156 C 305.363281 137.589844 303.378906 137.445312 301.394531 137.347656 C 299.410156 137.253906 297.425781 137.207031 295.4375 137.207031 C 293.449219 137.207031 291.464844 137.257812 289.480469 137.355469 C 287.492188 137.453125 285.511719 137.597656 283.535156 137.792969 C 281.558594 137.988281 279.585938 138.234375 277.621094 138.527344 C 275.652344 138.816406 273.695312 139.15625 271.746094 139.546875 C 269.796875 139.933594 267.859375 140.371094 265.933594 140.851562 C 264.003906 141.335938 262.089844 141.863281 260.1875 142.441406 C 258.285156 143.019531 256.398438 143.640625 254.527344 144.3125 C 252.65625 144.980469 250.804688 145.695312 248.96875 146.457031 C 247.132812 147.214844 245.316406 148.019531 243.519531 148.871094 C 241.722656 149.71875 239.949219 150.613281 238.195312 151.546875 C 236.441406 152.484375 234.710938 153.464844 233.007812 154.484375 C 231.304688 155.503906 229.625 156.566406 227.972656 157.671875 C 226.316406 158.773438 224.695312 159.917969 223.097656 161.101562 C 221.5 162.285156 219.933594 163.503906 218.394531 164.765625 C 216.859375 166.023438 215.355469 167.320312 213.878906 168.65625 C 212.40625 169.988281 210.96875 171.359375 209.5625 172.761719 C 209.132812 173.175781 208.75 173.628906 208.410156 174.121094 C 208.070312 174.609375 207.785156 175.128906 207.546875 175.679688 C 207.3125 176.226562 207.132812 176.792969 207.011719 177.375 C 206.886719 177.960938 206.824219 178.550781 206.820312 179.144531 C 206.8125 179.742188 206.867188 180.332031 206.980469 180.917969 C 207.09375 181.503906 207.261719 182.074219 207.488281 182.625 C 207.714844 183.175781 207.992188 183.703125 208.320312 184.199219 C 208.652344 184.695312 209.027344 185.15625 209.449219 185.578125 C 209.871094 186 210.332031 186.375 210.828125 186.703125 C 211.324219 187.035156 211.847656 187.3125 212.402344 187.539062 C 212.953125 187.765625 213.523438 187.933594 214.105469 188.046875 C 214.691406 188.160156 215.285156 188.210938 215.878906 188.207031 C 216.476562 188.203125 217.066406 188.136719 217.652344 188.015625 C 218.234375 187.894531 218.800781 187.714844 219.347656 187.476562 C 219.894531 187.242188 220.414062 186.957031 220.90625 186.617188 C 221.398438 186.277344 221.851562 185.894531 222.265625 185.464844 C 223.460938 184.269531 224.6875 183.101562 225.945312 181.964844 C 227.199219 180.828125 228.484375 179.722656 229.792969 178.648438 C 231.101562 177.578125 232.4375 176.535156 233.796875 175.527344 C 235.15625 174.519531 236.542969 173.546875 237.949219 172.605469 C 239.359375 171.664062 240.789062 170.757812 242.242188 169.890625 C 243.695312 169.019531 245.167969 168.183594 246.660156 167.386719 C 248.15625 166.589844 249.667969 165.828125 251.199219 165.105469 C 252.730469 164.378906 254.277344 163.695312 255.839844 163.046875 C 257.40625 162.398438 258.984375 161.789062 260.578125 161.21875 C 262.175781 160.648438 263.78125 160.117188 265.402344 159.625 C 267.023438 159.132812 268.652344 158.683594 270.296875 158.269531 C 271.9375 157.859375 273.589844 157.488281 275.25 157.15625 C 276.910156 156.828125 278.578125 156.539062 280.253906 156.289062 C 281.929688 156.039062 283.609375 155.832031 285.296875 155.664062 C 286.980469 155.5 288.667969 155.375 290.359375 155.289062 C 292.050781 155.207031 293.742188 155.164062 295.4375 155.164062 C 297.128906 155.160156 298.824219 155.203125 300.515625 155.285156 C 302.207031 155.367188 303.894531 155.488281 305.578125 155.65625 C 307.265625 155.820312 308.945312 156.027344 310.621094 156.273438 C 312.292969 156.519531 313.964844 156.808594 315.625 157.136719 C 317.285156 157.46875 318.9375 157.835938 320.582031 158.246094 C 322.222656 158.65625 323.855469 159.105469 325.476562 159.597656 C 327.097656 160.085938 328.703125 160.617188 330.300781 161.183594 C 331.894531 161.753906 333.476562 162.363281 335.039062 163.007812 C 336.605469 163.65625 338.152344 164.339844 339.683594 165.0625 C 341.214844 165.785156 342.730469 166.542969 344.222656 167.339844 C 345.71875 168.136719 347.191406 168.96875 348.644531 169.835938 C 350.097656 170.707031 351.53125 171.609375 352.941406 172.546875 C 354.347656 173.488281 355.734375 174.460938 357.097656 175.46875 C 358.457031 176.472656 359.792969 177.511719 361.105469 178.585938 C 362.414062 179.65625 363.699219 180.761719 364.953125 181.898438 C 366.210938 183.03125 367.4375 184.199219 368.640625 185.394531 C 369.054688 185.808594 369.507812 186.183594 370 186.511719 C 370.492188 186.835938 371.007812 187.113281 371.554688 187.339844 C 372.097656 187.566406 372.660156 187.734375 373.238281 187.851562 C 373.816406 187.964844 374.402344 188.023438 374.992188 188.023438 C 375.582031 188.023438 376.164062 187.964844 376.742188 187.851562 C 377.320312 187.734375 377.882812 187.566406 378.425781 187.339844 C 378.972656 187.113281 379.488281 186.835938 379.980469 186.511719 C 380.472656 186.183594 380.925781 185.808594 381.34375 185.394531 Z M 381.34375 185.394531 " fill-opacity="1" fill-rule="nonzero"/><path fill="#5fa5f9" d="M 243.117188 206.316406 C 242.710938 206.734375 242.351562 207.191406 242.035156 207.679688 C 241.714844 208.171875 241.449219 208.6875 241.234375 209.226562 C 241.019531 209.769531 240.855469 210.328125 240.75 210.902344 C 240.640625 211.472656 240.589844 212.050781 240.59375 212.636719 C 240.601562 213.21875 240.660156 213.796875 240.777344 214.367188 C 240.894531 214.9375 241.066406 215.492188 241.292969 216.03125 C 241.519531 216.570312 241.792969 217.082031 242.121094 217.566406 C 242.445312 218.050781 242.8125 218.496094 243.226562 218.910156 C 243.636719 219.324219 244.085938 219.691406 244.570312 220.015625 C 245.054688 220.339844 245.566406 220.617188 246.105469 220.84375 C 246.640625 221.066406 247.195312 221.238281 247.769531 221.355469 C 248.339844 221.476562 248.917969 221.535156 249.5 221.542969 C 250.082031 221.546875 250.660156 221.496094 251.234375 221.386719 C 251.808594 221.28125 252.367188 221.117188 252.90625 220.902344 C 253.449219 220.683594 253.964844 220.417969 254.457031 220.101562 C 254.945312 219.785156 255.398438 219.425781 255.820312 219.019531 C 257.117188 217.722656 258.476562 216.496094 259.894531 215.332031 C 261.3125 214.171875 262.785156 213.082031 264.308594 212.0625 C 265.835938 211.046875 267.40625 210.105469 269.023438 209.242188 C 270.640625 208.378906 272.296875 207.597656 273.992188 206.894531 C 275.6875 206.195312 277.410156 205.578125 279.167969 205.046875 C 280.921875 204.515625 282.699219 204.070312 284.496094 203.714844 C 286.296875 203.355469 288.105469 203.089844 289.933594 202.910156 C 291.757812 202.730469 293.585938 202.640625 295.421875 202.640625 C 297.253906 202.640625 299.082031 202.730469 300.90625 202.910156 C 302.734375 203.089844 304.542969 203.355469 306.34375 203.714844 C 308.140625 204.070312 309.917969 204.515625 311.671875 205.046875 C 313.429688 205.578125 315.152344 206.195312 316.847656 206.894531 C 318.542969 207.597656 320.199219 208.378906 321.816406 209.242188 C 323.433594 210.105469 325.003906 211.046875 326.53125 212.0625 C 328.054688 213.082031 329.527344 214.171875 330.945312 215.332031 C 332.363281 216.496094 333.722656 217.722656 335.019531 219.019531 C 335.441406 219.425781 335.894531 219.785156 336.386719 220.101562 C 336.875 220.417969 337.390625 220.6875 337.933594 220.902344 C 338.472656 221.117188 339.03125 221.28125 339.605469 221.386719 C 340.179688 221.496094 340.757812 221.546875 341.339844 221.542969 C 341.921875 221.535156 342.5 221.476562 343.074219 221.355469 C 343.644531 221.238281 344.199219 221.066406 344.738281 220.84375 C 345.273438 220.617188 345.785156 220.34375 346.269531 220.015625 C 346.753906 219.691406 347.203125 219.324219 347.613281 218.910156 C 348.027344 218.496094 348.394531 218.050781 348.722656 217.566406 C 349.046875 217.082031 349.320312 216.570312 349.546875 216.03125 C 349.773438 215.492188 349.945312 214.9375 350.0625 214.367188 C 350.179688 213.796875 350.242188 213.21875 350.246094 212.636719 C 350.25 212.050781 350.199219 211.472656 350.09375 210.902344 C 349.984375 210.328125 349.824219 209.769531 349.605469 209.226562 C 349.390625 208.6875 349.125 208.171875 348.808594 207.679688 C 348.492188 207.191406 348.128906 206.734375 347.722656 206.316406 C 346.867188 205.460938 345.992188 204.628906 345.09375 203.816406 C 344.195312 203.003906 343.277344 202.214844 342.34375 201.449219 C 341.40625 200.683594 340.453125 199.9375 339.480469 199.21875 C 338.507812 198.5 337.515625 197.804688 336.507812 197.132812 C 335.503906 196.460938 334.480469 195.8125 333.441406 195.191406 C 332.402344 194.570312 331.351562 193.976562 330.28125 193.40625 C 329.214844 192.835938 328.132812 192.292969 327.039062 191.777344 C 325.945312 191.257812 324.839844 190.769531 323.71875 190.308594 C 322.601562 189.84375 321.472656 189.410156 320.332031 189.003906 C 319.195312 188.597656 318.042969 188.214844 316.886719 187.867188 C 315.726562 187.515625 314.5625 187.191406 313.386719 186.898438 C 312.214844 186.605469 311.035156 186.339844 309.847656 186.105469 C 308.660156 185.871094 307.46875 185.664062 306.269531 185.484375 C 305.074219 185.308594 303.871094 185.160156 302.667969 185.042969 C 301.464844 184.921875 300.257812 184.835938 299.046875 184.777344 C 297.839844 184.714844 296.628906 184.6875 295.421875 184.6875 C 294.210938 184.6875 293 184.714844 291.792969 184.777344 C 290.582031 184.835938 289.375 184.921875 288.171875 185.042969 C 286.96875 185.160156 285.765625 185.308594 284.570312 185.484375 C 283.371094 185.664062 282.179688 185.871094 280.992188 186.105469 C 279.808594 186.339844 278.625 186.605469 277.453125 186.898438 C 276.277344 187.191406 275.113281 187.515625 273.953125 187.867188 C 272.796875 188.214844 271.648438 188.597656 270.507812 189.003906 C 269.367188 189.410156 268.238281 189.84375 267.121094 190.308594 C 266 190.769531 264.894531 191.257812 263.800781 191.777344 C 262.707031 192.292969 261.625 192.835938 260.558594 193.40625 C 259.492188 193.976562 258.4375 194.570312 257.398438 195.191406 C 256.359375 195.8125 255.335938 196.460938 254.332031 197.132812 C 253.324219 197.804688 252.335938 198.5 251.363281 199.21875 C 250.390625 199.9375 249.433594 200.683594 248.5 201.449219 C 247.5625 202.214844 246.644531 203.003906 245.746094 203.816406 C 244.851562 204.628906 243.972656 205.460938 243.117188 206.316406 Z M 243.117188 206.316406 " fill-opacity="1" fill-rule="nonzero"/><path fill="#5fa5f9" d="M 415.796875 150.949219 C 416.210938 150.53125 416.585938 150.078125 416.910156 149.585938 C 417.238281 149.097656 417.515625 148.578125 417.742188 148.035156 C 417.96875 147.488281 418.136719 146.929688 418.253906 146.347656 C 418.367188 145.769531 418.425781 145.1875 418.425781 144.597656 C 418.425781 144.007812 418.367188 143.421875 418.253906 142.84375 C 418.136719 142.265625 417.96875 141.703125 417.742188 141.160156 C 417.515625 140.613281 417.238281 140.097656 416.910156 139.605469 C 416.585938 139.117188 416.210938 138.664062 415.796875 138.246094 C 413.824219 136.28125 411.804688 134.363281 409.738281 132.496094 C 407.671875 130.628906 405.5625 128.8125 403.410156 127.050781 C 401.253906 125.289062 399.058594 123.578125 396.820312 121.921875 C 394.582031 120.265625 392.300781 118.667969 389.984375 117.121094 C 387.667969 115.578125 385.316406 114.089844 382.925781 112.664062 C 380.535156 111.234375 378.113281 109.863281 375.65625 108.554688 C 373.199219 107.246094 370.710938 105.996094 368.191406 104.808594 C 365.675781 103.621094 363.128906 102.496094 360.554688 101.429688 C 357.984375 100.367188 355.386719 99.367188 352.761719 98.433594 C 350.140625 97.496094 347.496094 96.625 344.832031 95.820312 C 342.167969 95.011719 339.484375 94.273438 336.78125 93.597656 C 334.082031 92.921875 331.363281 92.316406 328.632812 91.773438 C 325.902344 91.230469 323.160156 90.757812 320.40625 90.351562 C 317.652344 89.945312 314.886719 89.605469 312.117188 89.332031 C 309.347656 89.0625 306.570312 88.855469 303.789062 88.722656 C 301.007812 88.585938 298.226562 88.519531 295.441406 88.519531 C 292.65625 88.519531 289.875 88.589844 287.09375 88.726562 C 284.3125 88.863281 281.535156 89.070312 278.765625 89.34375 C 275.996094 89.617188 273.234375 89.957031 270.476562 90.367188 C 267.722656 90.773438 264.980469 91.25 262.25 91.792969 C 259.519531 92.335938 256.804688 92.945312 254.101562 93.621094 C 251.402344 94.300781 248.71875 95.042969 246.054688 95.847656 C 243.390625 96.65625 240.746094 97.53125 238.125 98.46875 C 235.503906 99.40625 232.90625 100.40625 230.335938 101.46875 C 227.761719 102.535156 225.214844 103.660156 222.699219 104.851562 C 220.183594 106.039062 217.695312 107.292969 215.238281 108.601562 C 212.78125 109.914062 210.359375 111.285156 207.972656 112.714844 C 205.582031 114.144531 203.230469 115.632812 200.914062 117.179688 C 198.597656 118.722656 196.320312 120.324219 194.082031 121.984375 C 191.847656 123.640625 189.652344 125.351562 187.496094 127.117188 C 185.34375 128.878906 183.234375 130.695312 181.167969 132.566406 C 179.105469 134.433594 177.085938 136.351562 175.117188 138.316406 C 174.6875 138.730469 174.304688 139.183594 173.964844 139.675781 C 173.625 140.167969 173.339844 140.6875 173.105469 141.234375 C 172.867188 141.78125 172.6875 142.347656 172.566406 142.929688 C 172.445312 143.515625 172.378906 144.105469 172.375 144.703125 C 172.371094 145.296875 172.421875 145.890625 172.535156 146.476562 C 172.648438 147.058594 172.816406 147.628906 173.042969 148.179688 C 173.269531 148.734375 173.546875 149.257812 173.878906 149.753906 C 174.207031 150.25 174.585938 150.710938 175.003906 151.132812 C 175.425781 151.554688 175.886719 151.929688 176.382812 152.261719 C 176.878906 152.589844 177.40625 152.867188 177.957031 153.09375 C 178.507812 153.320312 179.078125 153.488281 179.664062 153.601562 C 180.25 153.714844 180.839844 153.769531 181.4375 153.761719 C 182.03125 153.757812 182.621094 153.695312 183.207031 153.570312 C 183.789062 153.449219 184.355469 153.269531 184.902344 153.035156 C 185.453125 152.796875 185.972656 152.511719 186.460938 152.171875 C 186.953125 151.832031 187.40625 151.449219 187.820312 151.019531 C 189.582031 149.261719 191.386719 147.546875 193.234375 145.875 C 195.082031 144.203125 196.96875 142.578125 198.894531 141 C 200.820312 139.421875 202.78125 137.890625 204.785156 136.410156 C 206.785156 134.925781 208.820312 133.496094 210.894531 132.113281 C 212.964844 130.730469 215.070312 129.398438 217.207031 128.121094 C 219.34375 126.839844 221.507812 125.613281 223.707031 124.441406 C 225.902344 123.269531 228.125 122.148438 230.378906 121.085938 C 232.628906 120.023438 234.90625 119.015625 237.207031 118.0625 C 239.507812 117.109375 241.832031 116.214844 244.175781 115.375 C 246.519531 114.535156 248.886719 113.757812 251.269531 113.035156 C 253.652344 112.3125 256.050781 111.648438 258.46875 111.042969 C 260.882812 110.4375 263.3125 109.890625 265.753906 109.40625 C 268.195312 108.917969 270.648438 108.492188 273.113281 108.128906 C 275.578125 107.761719 278.046875 107.457031 280.527344 107.210938 C 283.003906 106.96875 285.488281 106.785156 287.976562 106.660156 C 290.460938 106.539062 292.949219 106.476562 295.441406 106.476562 C 297.929688 106.476562 300.421875 106.535156 302.90625 106.65625 C 305.394531 106.777344 307.878906 106.960938 310.355469 107.203125 C 312.835938 107.445312 315.304688 107.75 317.769531 108.113281 C 320.234375 108.476562 322.6875 108.902344 325.128906 109.386719 C 327.574219 109.871094 330.003906 110.414062 332.417969 111.015625 C 334.835938 111.621094 337.234375 112.28125 339.617188 113.003906 C 342 113.726562 344.367188 114.503906 346.710938 115.339844 C 349.058594 116.179688 351.382812 117.070312 353.683594 118.023438 C 355.984375 118.972656 358.261719 119.980469 360.515625 121.042969 C 362.765625 122.105469 364.992188 123.222656 367.1875 124.394531 C 369.386719 125.566406 371.554688 126.789062 373.691406 128.066406 C 375.828125 129.347656 377.933594 130.675781 380.007812 132.054688 C 382.078125 133.4375 384.117188 134.867188 386.117188 136.347656 C 388.121094 137.828125 390.085938 139.359375 392.011719 140.9375 C 393.941406 142.511719 395.828125 144.136719 397.675781 145.808594 C 399.523438 147.476562 401.328125 149.191406 403.09375 150.949219 C 403.507812 151.367188 403.960938 151.738281 404.453125 152.066406 C 404.945312 152.394531 405.460938 152.667969 406.007812 152.894531 C 406.550781 153.121094 407.113281 153.292969 407.691406 153.40625 C 408.269531 153.523438 408.855469 153.578125 409.445312 153.578125 C 410.035156 153.578125 410.617188 153.523438 411.195312 153.40625 C 411.773438 153.292969 412.335938 153.121094 412.878906 152.894531 C 413.425781 152.667969 413.945312 152.394531 414.433594 152.066406 C 414.925781 151.738281 415.378906 151.367188 415.796875 150.949219 Z M 415.796875 150.949219 " fill-opacity="1" fill-rule="nonzero"/><g clip-path="url(#24fd8abd3d)"><path fill="#5fa5f9" d="M 534.472656 348.746094 L 498.175781 348.746094 C 496.324219 348.742188 494.488281 348.546875 492.671875 348.167969 C 490.859375 347.785156 489.101562 347.222656 487.402344 346.480469 C 485.703125 345.738281 484.09375 344.832031 482.582031 343.761719 C 481.066406 342.691406 479.679688 341.476562 478.414062 340.121094 L 407.980469 264.117188 C 406.464844 262.496094 404.871094 260.953125 403.203125 259.496094 C 401.53125 258.035156 399.789062 256.664062 397.976562 255.382812 C 396.164062 254.101562 394.292969 252.917969 392.359375 251.828125 C 390.425781 250.738281 388.441406 249.75 386.40625 248.863281 C 384.371094 247.976562 382.296875 247.199219 380.183594 246.523438 C 378.070312 245.851562 375.925781 245.285156 373.753906 244.832031 C 371.582031 244.378906 369.390625 244.035156 367.183594 243.804688 C 364.976562 243.574219 362.761719 243.460938 360.542969 243.457031 L 211.320312 243.457031 C 208.625 243.445312 205.9375 243.601562 203.257812 243.929688 C 200.578125 244.257812 197.933594 244.753906 195.316406 245.417969 C 192.703125 246.078125 190.140625 246.902344 187.628906 247.890625 C 185.117188 248.878906 182.675781 250.019531 180.308594 251.3125 C 177.945312 252.609375 175.667969 254.046875 173.480469 255.628906 C 171.296875 257.210938 169.21875 258.925781 167.25 260.773438 C 165.285156 262.617188 163.4375 264.578125 161.71875 266.65625 C 159.996094 268.734375 158.414062 270.914062 156.96875 273.191406 L 116.632812 336.347656 C 115.398438 338.253906 113.949219 339.972656 112.285156 341.515625 C 110.621094 343.054688 108.792969 344.367188 106.796875 345.449219 C 104.804688 346.53125 102.710938 347.351562 100.511719 347.910156 C 98.3125 348.46875 96.082031 348.746094 93.8125 348.746094 C 92.34375 348.753906 90.878906 348.835938 89.417969 348.988281 C 87.953125 349.140625 86.503906 349.363281 85.0625 349.65625 C 83.625 349.949219 82.199219 350.3125 80.796875 350.746094 C 79.390625 351.179688 78.011719 351.679688 76.65625 352.246094 C 75.300781 352.8125 73.976562 353.445312 72.683594 354.144531 C 71.390625 354.839844 70.132812 355.597656 68.914062 356.417969 C 67.691406 357.238281 66.515625 358.117188 65.382812 359.050781 C 64.25 359.988281 63.164062 360.976562 62.125 362.015625 C 61.089844 363.058594 60.105469 364.148438 59.175781 365.285156 C 58.246094 366.421875 57.371094 367.601562 56.554688 368.824219 C 55.742188 370.046875 54.988281 371.308594 54.296875 372.605469 C 53.601562 373.902344 52.976562 375.226562 52.414062 376.585938 C 51.851562 377.941406 51.355469 379.324219 50.929688 380.730469 C 50.503906 382.136719 50.144531 383.5625 49.855469 385.003906 C 49.570312 386.445312 49.351562 387.894531 49.207031 389.359375 C 49.058594 390.820312 48.984375 392.285156 48.984375 393.757812 L 48.984375 434.273438 C 48.984375 435.742188 49.054688 437.207031 49.199219 438.671875 C 49.34375 440.132812 49.558594 441.585938 49.84375 443.027344 C 50.128906 444.464844 50.488281 445.890625 50.914062 447.296875 C 51.339844 448.703125 51.832031 450.085938 52.394531 451.441406 C 52.957031 452.800781 53.582031 454.128906 54.273438 455.421875 C 54.964844 456.71875 55.71875 457.980469 56.535156 459.199219 C 57.351562 460.421875 58.222656 461.601562 59.15625 462.738281 C 60.085938 463.875 61.070312 464.964844 62.109375 466.003906 C 63.144531 467.042969 64.234375 468.03125 65.367188 468.964844 C 66.503906 469.898438 67.679688 470.773438 68.902344 471.589844 C 70.121094 472.410156 71.378906 473.164062 72.671875 473.859375 C 73.96875 474.554688 75.292969 475.183594 76.652344 475.746094 C 78.007812 476.3125 79.386719 476.808594 80.792969 477.238281 C 82.199219 477.664062 83.621094 478.023438 85.0625 478.3125 C 86.503906 478.601562 87.953125 478.820312 89.417969 478.96875 C 90.878906 479.113281 92.34375 479.191406 93.8125 479.191406 L 116.8125 479.191406 C 117.023438 480.832031 117.3125 482.460938 117.671875 484.074219 C 118.03125 485.6875 118.460938 487.285156 118.964844 488.859375 C 119.46875 490.4375 120.042969 491.984375 120.6875 493.507812 C 121.328125 495.03125 122.039062 496.523438 122.816406 497.984375 C 123.59375 499.445312 124.4375 500.867188 125.34375 502.25 C 126.25 503.632812 127.214844 504.972656 128.242188 506.269531 C 129.269531 507.566406 130.351562 508.816406 131.492188 510.015625 C 132.632812 511.214844 133.824219 512.359375 135.066406 513.453125 C 136.308594 514.542969 137.597656 515.578125 138.933594 516.550781 C 140.269531 517.527344 141.644531 518.441406 143.0625 519.292969 C 144.480469 520.144531 145.9375 520.929688 147.425781 521.648438 C 148.914062 522.371094 150.433594 523.023438 151.980469 523.605469 C 153.527344 524.1875 155.097656 524.699219 156.691406 525.144531 C 158.285156 525.585938 159.898438 525.953125 161.523438 526.25 C 163.152344 526.546875 164.789062 526.769531 166.4375 526.917969 C 168.085938 527.066406 169.734375 527.140625 171.390625 527.140625 C 173.042969 527.140625 174.695312 527.066406 176.339844 526.917969 C 177.988281 526.769531 179.625 526.546875 181.253906 526.25 C 182.878906 525.953125 184.492188 525.585938 186.085938 525.144531 C 187.679688 524.699219 189.25 524.1875 190.796875 523.605469 C 192.34375 523.023438 193.863281 522.371094 195.351562 521.648438 C 196.84375 520.929688 198.296875 520.144531 199.714844 519.292969 C 201.132812 518.441406 202.507812 517.527344 203.84375 516.550781 C 205.179688 515.578125 206.46875 514.542969 207.710938 513.453125 C 208.957031 512.359375 210.144531 511.214844 211.285156 510.015625 C 212.425781 508.816406 213.507812 507.566406 214.535156 506.269531 C 215.5625 504.972656 216.527344 503.632812 217.433594 502.25 C 218.339844 500.867188 219.183594 499.445312 219.960938 497.984375 C 220.738281 496.523438 221.449219 495.03125 222.089844 493.507812 C 222.734375 491.984375 223.308594 490.4375 223.8125 488.859375 C 224.316406 487.285156 224.746094 485.6875 225.105469 484.074219 C 225.464844 482.460938 225.753906 480.832031 225.964844 479.191406 L 407.800781 479.191406 C 408.011719 480.832031 408.296875 482.460938 408.660156 484.074219 C 409.019531 485.6875 409.449219 487.285156 409.953125 488.859375 C 410.457031 490.433594 411.03125 491.984375 411.671875 493.507812 C 412.316406 495.03125 413.027344 496.523438 413.804688 497.984375 C 414.582031 499.445312 415.425781 500.867188 416.332031 502.25 C 417.238281 503.632812 418.203125 504.972656 419.230469 506.269531 C 420.257812 507.566406 421.339844 508.816406 422.480469 510.015625 C 423.617188 511.214844 424.808594 512.359375 426.050781 513.453125 C 427.296875 514.542969 428.585938 515.578125 429.921875 516.550781 C 431.257812 517.527344 432.632812 518.441406 434.050781 519.292969 C 435.46875 520.144531 436.921875 520.929688 438.414062 521.648438 C 439.902344 522.371094 441.417969 523.023438 442.96875 523.605469 C 444.515625 524.1875 446.085938 524.699219 447.679688 525.140625 C 449.273438 525.585938 450.886719 525.953125 452.511719 526.25 C 454.140625 526.546875 455.777344 526.769531 457.425781 526.917969 C 459.070312 527.066406 460.722656 527.140625 462.375 527.140625 C 464.03125 527.140625 465.679688 527.066406 467.328125 526.917969 C 468.976562 526.769531 470.613281 526.546875 472.242188 526.25 C 473.867188 525.953125 475.480469 525.585938 477.074219 525.140625 C 478.667969 524.699219 480.238281 524.1875 481.785156 523.605469 C 483.332031 523.023438 484.851562 522.371094 486.339844 521.648438 C 487.828125 520.929688 489.285156 520.144531 490.703125 519.292969 C 492.121094 518.441406 493.496094 517.527344 494.832031 516.550781 C 496.167969 515.578125 497.457031 514.542969 498.699219 513.453125 C 499.941406 512.359375 501.132812 511.214844 502.273438 510.015625 C 503.414062 508.816406 504.496094 507.566406 505.523438 506.269531 C 506.550781 504.972656 507.515625 503.632812 508.421875 502.25 C 509.328125 500.867188 510.167969 499.445312 510.949219 497.984375 C 511.726562 496.523438 512.4375 495.03125 513.078125 493.507812 C 513.722656 491.984375 514.296875 490.433594 514.800781 488.859375 C 515.304688 487.285156 515.734375 485.6875 516.09375 484.074219 C 516.453125 482.460938 516.742188 480.832031 516.953125 479.191406 L 554.328125 479.191406 C 555.429688 479.191406 556.53125 479.136719 557.628906 479.03125 C 558.726562 478.921875 559.816406 478.757812 560.898438 478.542969 C 561.980469 478.328125 563.050781 478.058594 564.105469 477.738281 C 565.160156 477.417969 566.199219 477.046875 567.21875 476.625 C 568.238281 476.203125 569.234375 475.730469 570.207031 475.210938 C 571.179688 474.691406 572.125 474.125 573.042969 473.511719 C 573.957031 472.898438 574.84375 472.242188 575.695312 471.542969 C 576.550781 470.84375 577.367188 470.101562 578.144531 469.324219 C 578.925781 468.542969 579.664062 467.726562 580.367188 466.871094 C 581.066406 466.019531 581.722656 465.136719 582.335938 464.21875 C 582.949219 463.300781 583.515625 462.355469 584.035156 461.382812 C 584.554688 460.410156 585.027344 459.414062 585.449219 458.394531 C 585.871094 457.375 586.242188 456.335938 586.5625 455.28125 C 586.882812 454.226562 587.152344 453.15625 587.367188 452.074219 C 587.582031 450.992188 587.746094 449.902344 587.851562 448.804688 C 587.960938 447.707031 588.015625 446.605469 588.015625 445.503906 L 588.015625 402.289062 C 588.015625 400.539062 587.929688 398.789062 587.757812 397.042969 C 587.585938 395.296875 587.328125 393.566406 586.984375 391.847656 C 586.640625 390.125 586.214844 388.425781 585.707031 386.75 C 585.195312 385.070312 584.605469 383.421875 583.933594 381.804688 C 583.265625 380.183594 582.515625 378.601562 581.6875 377.054688 C 580.863281 375.507812 579.960938 374.003906 578.988281 372.546875 C 578.011719 371.089844 576.96875 369.683594 575.855469 368.328125 C 574.742188 366.972656 573.566406 365.675781 572.328125 364.433594 C 571.089844 363.195312 569.789062 362.019531 568.433594 360.90625 C 567.078125 359.792969 565.671875 358.75 564.214844 357.777344 C 562.757812 356.800781 561.253906 355.902344 559.707031 355.074219 C 558.164062 354.246094 556.578125 353.5 554.960938 352.828125 C 553.339844 352.15625 551.691406 351.566406 550.011719 351.054688 C 548.335938 350.546875 546.636719 350.121094 544.917969 349.777344 C 543.195312 349.4375 541.464844 349.179688 539.71875 349.007812 C 537.976562 348.832031 536.226562 348.746094 534.472656 348.746094 Z M 325.867188 261.421875 L 360.542969 261.421875 C 363.757812 261.417969 366.9375 261.742188 370.082031 262.394531 C 373.226562 263.046875 376.273438 264.015625 379.21875 265.300781 C 382.164062 266.582031 384.945312 268.152344 387.566406 270.011719 C 390.1875 271.871094 392.589844 273.980469 394.773438 276.335938 L 445.261719 330.867188 L 325.867188 330.867188 Z M 241.507812 261.421875 L 307.898438 261.421875 L 307.898438 330.867188 L 241.507812 330.867188 Z M 172.152344 282.804688 C 173.195312 281.167969 174.339844 279.597656 175.582031 278.105469 C 176.820312 276.609375 178.152344 275.199219 179.570312 273.871094 C 180.992188 272.542969 182.488281 271.3125 184.0625 270.175781 C 185.636719 269.035156 187.277344 268 188.984375 267.070312 C 190.691406 266.140625 192.445312 265.320312 194.257812 264.609375 C 196.066406 263.902344 197.910156 263.308594 199.796875 262.832031 C 201.679688 262.355469 203.585938 262 205.515625 261.765625 C 207.441406 261.527344 209.378906 261.414062 211.320312 261.421875 L 223.539062 261.421875 L 223.539062 330.867188 L 141.425781 330.867188 Z M 171.34375 509.199219 C 170.128906 509.199219 168.914062 509.140625 167.703125 509.023438 C 166.492188 508.90625 165.289062 508.730469 164.097656 508.492188 C 162.902344 508.257812 161.722656 507.964844 160.558594 507.613281 C 159.394531 507.261719 158.25 506.851562 157.125 506.386719 C 156 505.925781 154.902344 505.40625 153.828125 504.832031 C 152.753906 504.261719 151.710938 503.636719 150.699219 502.964844 C 149.683594 502.289062 148.707031 501.566406 147.765625 500.796875 C 146.824219 500.023438 145.925781 499.210938 145.0625 498.351562 C 144.203125 497.492188 143.382812 496.589844 142.613281 495.652344 C 141.839844 494.710938 141.113281 493.738281 140.4375 492.726562 C 139.757812 491.714844 139.132812 490.675781 138.558594 489.601562 C 137.984375 488.53125 137.460938 487.429688 136.996094 486.308594 C 136.527344 485.183594 136.117188 484.039062 135.761719 482.878906 C 135.410156 481.714844 135.113281 480.535156 134.875 479.339844 C 134.632812 478.148438 134.453125 476.945312 134.335938 475.734375 C 134.214844 474.527344 134.152344 473.3125 134.152344 472.09375 C 134.148438 470.878906 134.207031 469.664062 134.324219 468.453125 C 134.441406 467.242188 134.621094 466.039062 134.855469 464.847656 C 135.089844 463.652344 135.386719 462.472656 135.738281 461.308594 C 136.089844 460.144531 136.496094 459 136.960938 457.875 C 137.425781 456.75 137.945312 455.652344 138.515625 454.578125 C 139.089844 453.503906 139.710938 452.460938 140.386719 451.449219 C 141.0625 450.4375 141.785156 449.460938 142.554688 448.519531 C 143.324219 447.578125 144.140625 446.675781 145 445.8125 C 145.859375 444.953125 146.757812 444.136719 147.699219 443.363281 C 148.636719 442.589844 149.613281 441.863281 150.625 441.1875 C 151.632812 440.511719 152.675781 439.882812 153.746094 439.308594 C 154.820312 438.734375 155.917969 438.214844 157.042969 437.746094 C 158.164062 437.28125 159.308594 436.871094 160.472656 436.515625 C 161.636719 436.160156 162.816406 435.863281 164.007812 435.625 C 165.199219 435.386719 166.402344 435.207031 167.613281 435.085938 C 168.824219 434.964844 170.039062 434.902344 171.253906 434.902344 C 172.472656 434.902344 173.683594 434.957031 174.894531 435.078125 C 176.105469 435.195312 177.308594 435.371094 178.503906 435.605469 C 179.695312 435.84375 180.875 436.136719 182.039062 436.488281 C 183.203125 436.839844 184.347656 437.25 185.472656 437.710938 C 186.597656 438.175781 187.699219 438.695312 188.769531 439.265625 C 189.84375 439.839844 190.886719 440.464844 191.898438 441.136719 C 192.914062 441.8125 193.890625 442.535156 194.832031 443.304688 C 195.773438 444.078125 196.671875 444.890625 197.535156 445.75 C 198.394531 446.609375 199.214844 447.507812 199.988281 448.449219 C 200.757812 449.386719 201.484375 450.363281 202.160156 451.375 C 202.839844 452.386719 203.464844 453.425781 204.039062 454.5 C 204.613281 455.570312 205.136719 456.667969 205.601562 457.792969 C 206.070312 458.917969 206.480469 460.058594 206.835938 461.222656 C 207.1875 462.386719 207.484375 463.566406 207.726562 464.757812 C 207.964844 465.953125 208.144531 467.152344 208.265625 468.363281 C 208.382812 469.574219 208.445312 470.789062 208.449219 472.003906 C 208.449219 473.222656 208.386719 474.433594 208.269531 475.644531 C 208.148438 476.855469 207.972656 478.058594 207.734375 479.25 C 207.496094 480.445312 207.203125 481.621094 206.851562 482.785156 C 206.5 483.949219 206.089844 485.09375 205.625 486.21875 C 205.160156 487.34375 204.640625 488.441406 204.070312 489.511719 C 203.496094 490.585938 202.871094 491.628906 202.199219 492.640625 C 201.523438 493.652344 200.800781 494.628906 200.03125 495.570312 C 199.257812 496.511719 198.445312 497.414062 197.585938 498.273438 C 196.726562 499.132812 195.828125 499.953125 194.886719 500.722656 C 193.949219 501.496094 192.972656 502.222656 191.964844 502.898438 C 190.953125 503.578125 189.914062 504.203125 188.839844 504.777344 C 187.769531 505.351562 186.671875 505.875 185.550781 506.339844 C 184.425781 506.808594 183.285156 507.21875 182.121094 507.574219 C 180.957031 507.929688 179.78125 508.230469 178.585938 508.46875 C 177.394531 508.707031 176.195312 508.890625 174.984375 509.011719 C 173.773438 509.132812 172.558594 509.195312 171.34375 509.199219 Z M 462.332031 509.199219 C 461.128906 509.203125 459.925781 509.144531 458.726562 509.03125 C 457.527344 508.917969 456.335938 508.746094 455.15625 508.515625 C 453.972656 508.285156 452.804688 508 451.648438 507.65625 C 450.496094 507.3125 449.359375 506.914062 448.242188 506.460938 C 447.128906 506.007812 446.039062 505.5 444.972656 504.941406 C 443.90625 504.378906 442.867188 503.769531 441.859375 503.109375 C 440.855469 502.449219 439.882812 501.738281 438.941406 500.984375 C 438.003906 500.230469 437.105469 499.429688 436.246094 498.585938 C 435.386719 497.742188 434.566406 496.859375 433.792969 495.9375 C 433.019531 495.015625 432.289062 494.058594 431.609375 493.066406 C 430.929688 492.070312 430.296875 491.046875 429.714844 489.992188 C 429.132812 488.9375 428.605469 487.859375 428.128906 486.753906 C 427.652344 485.644531 427.230469 484.519531 426.863281 483.371094 C 426.496094 482.226562 426.183594 481.0625 425.929688 479.886719 C 425.675781 478.707031 425.480469 477.523438 425.339844 476.324219 C 425.203125 475.128906 425.121094 473.929688 425.101562 472.722656 C 425.078125 471.519531 425.113281 470.316406 425.210938 469.117188 C 425.304688 467.914062 425.457031 466.722656 425.667969 465.535156 C 425.878906 464.351562 426.148438 463.179688 426.472656 462.019531 C 426.800781 460.859375 427.179688 459.71875 427.617188 458.59375 C 428.054688 457.472656 428.542969 456.375 429.085938 455.296875 C 429.628906 454.222656 430.222656 453.175781 430.867188 452.160156 C 431.511719 451.144531 432.207031 450.160156 432.945312 449.210938 C 433.6875 448.257812 434.472656 447.347656 435.300781 446.472656 C 436.128906 445.601562 437 444.769531 437.910156 443.980469 C 438.820312 443.191406 439.765625 442.449219 440.75 441.753906 C 441.730469 441.054688 442.746094 440.40625 443.789062 439.808594 C 444.835938 439.210938 445.90625 438.664062 447.003906 438.171875 C 448.105469 437.675781 449.222656 437.238281 450.363281 436.851562 C 451.507812 436.46875 452.664062 436.136719 453.835938 435.867188 C 455.011719 435.59375 456.195312 435.378906 457.386719 435.222656 C 458.582031 435.0625 459.78125 434.964844 460.984375 434.921875 C 462.1875 434.882812 463.390625 434.902344 464.59375 434.976562 C 465.796875 435.054688 466.992188 435.1875 468.179688 435.378906 C 469.367188 435.570312 470.546875 435.820312 471.710938 436.128906 C 472.875 436.4375 474.023438 436.796875 475.152344 437.21875 C 476.28125 437.636719 477.386719 438.109375 478.46875 438.632812 C 479.554688 439.160156 480.609375 439.738281 481.636719 440.367188 C 482.664062 440.996094 483.660156 441.671875 484.621094 442.398438 C 485.582031 443.125 486.503906 443.894531 487.390625 444.710938 C 488.277344 445.523438 489.121094 446.382812 489.925781 447.277344 C 490.730469 448.175781 491.488281 449.109375 492.199219 450.082031 C 492.910156 451.054688 493.574219 452.058594 494.1875 453.09375 C 494.804688 454.128906 495.367188 455.191406 495.878906 456.28125 C 496.390625 457.375 496.847656 458.484375 497.25 459.621094 C 497.652344 460.757812 498 461.90625 498.289062 463.078125 C 498.582031 464.246094 498.816406 465.425781 498.992188 466.617188 C 499.167969 467.808594 499.285156 469.003906 499.34375 470.207031 L 499.34375 470.386719 C 499.34375 470.925781 499.523438 471.464844 499.523438 472.003906 C 499.523438 473.222656 499.460938 474.4375 499.339844 475.648438 C 499.21875 476.859375 499.039062 478.0625 498.796875 479.257812 C 498.558594 480.449219 498.261719 481.628906 497.90625 482.792969 C 497.550781 483.957031 497.140625 485.101562 496.675781 486.226562 C 496.207031 487.351562 495.6875 488.449219 495.113281 489.523438 C 494.539062 490.597656 493.910156 491.640625 493.234375 492.652344 C 492.558594 493.664062 491.832031 494.640625 491.058594 495.582031 C 490.289062 496.523438 489.472656 497.421875 488.609375 498.285156 C 487.75 499.144531 486.847656 499.960938 485.90625 500.734375 C 484.964844 501.507812 483.988281 502.230469 482.976562 502.910156 C 481.964844 503.585938 480.921875 504.210938 479.851562 504.785156 C 478.777344 505.359375 477.679688 505.882812 476.554688 506.347656 C 475.429688 506.816406 474.285156 507.226562 473.121094 507.582031 C 471.957031 507.9375 470.777344 508.234375 469.582031 508.472656 C 468.390625 508.710938 467.1875 508.890625 465.976562 509.011719 C 464.761719 509.132812 463.550781 509.195312 462.332031 509.199219 Z M 462.332031 509.199219 " fill-opacity="1" fill-rule="nonzero"/></g></svg>